<svg width="25" height="17" viewBox="0 0 25 17" fill="none" xmlns="http://www.w3.org/2000/svg">
<path d="M19.1701 4.52141C13.3934 4.52141 13.3859 10.2763 13.3859 10.3059C13.3859 10.3059 12.9902 16.068 19.1701 16.068C19.1701 16.068 24.3239 16.3611 24.3239 12.0579H21.6775C21.6775 12.0579 21.7652 13.6779 19.2581 13.6779C19.2581 13.6779 16.6117 13.854 16.6117 11.0607H24.412C24.412 11.0607 25.2698 4.52141 19.1701 4.52141ZM16.5821 9.04457C16.5821 9.04457 16.9048 6.72791 19.2289 6.72791C21.5602 6.72791 21.5235 9.04457 21.5235 9.04457H16.5821ZM9.9701 7.56395C9.9701 7.56395 12.2647 7.39531 12.2647 4.69753C12.2647 2.00724 10.3879 0.687408 8.00533 0.687408H0.167969V15.7525H8.00461C8.00461 15.7525 12.7919 15.8994 12.7919 11.3028C12.7923 11.3028 12.9977 7.56395 9.9701 7.56395ZM3.62121 3.36308H8.00497C8.00497 3.36308 9.06811 3.36308 9.06811 4.93177C9.06811 6.50045 8.44491 6.72791 7.73366 6.72791H3.62121V3.36308ZM7.78535 13.0768H3.62121V9.04457H8.00497C8.00497 9.04457 9.59611 9.02995 9.58863 11.1192C9.58863 12.8789 8.40855 13.0622 7.78535 13.0768ZM15.9297 1.57443V3.4294H22.1466V1.57443H15.9297Z" fill="#FAFAFA"/>
</svg>
