<svg width="232" height="60" viewBox="0 0 232 60" fill="none" xmlns="http://www.w3.org/2000/svg">
<circle cx="30" cy="30" r="29" stroke="white" stroke-width="2"/>
<path d="M27.464 33.128L19.688 21.736H17.736V19.176H28.776V21.736H25.768L31.592 30.376H30.408L36.232 21.736H33.256V19.176H41.928V21.736H40.008L32.2 33.128H27.464ZM23.848 41V38.44H27.272V30.12H32.424V38.44H35.848V41H23.848Z" fill="white"/>
<path d="M82.94 47.896C82.6413 47.9707 82.3427 48.008 82.044 48.008C81.5027 48.008 81.092 47.8773 80.812 47.616C80.532 47.3547 80.392 47.028 80.392 46.636C80.392 46.3 80.504 45.936 80.728 45.544C80.952 45.1707 81.288 44.8347 81.736 44.536C82.3147 44.144 82.8373 43.8267 83.304 43.584C83.7893 43.3413 84.312 43.0987 84.872 42.856C85.432 42.632 86.132 42.324 86.972 41.932C87.0653 41.7267 87.168 41.484 87.28 41.204C87.392 40.924 87.5787 40.4573 87.84 39.804C88.1013 39.1507 88.484 38.18 88.988 36.892C88.5773 37.396 88.1667 37.8627 87.756 38.292C87.3453 38.7213 87.0093 39.0573 86.748 39.3C86.3747 39.58 86.0107 39.804 85.656 39.972C85.32 40.1213 84.984 40.196 84.648 40.196C84.2 40.196 83.8827 40.0653 83.696 39.804C83.528 39.5427 83.444 39.2347 83.444 38.88C83.444 38.5813 83.4813 38.2733 83.556 37.956C83.6493 37.6387 83.752 37.34 83.864 37.06C84.1253 36.4067 84.4053 35.7907 84.704 35.212C85.0213 34.6147 85.3293 33.9987 85.628 33.364C85.7027 33.2147 85.8053 32.972 85.936 32.636C86.0853 32.3 86.16 31.992 86.16 31.712C86.16 31.3947 86.02 31.236 85.74 31.236C85.4787 31.236 85.208 31.3667 84.928 31.628C84.6667 31.8707 84.4333 32.1507 84.228 32.468C84.0227 32.7853 83.864 33.0373 83.752 33.224C83.752 33.224 83.6587 33.4013 83.472 33.756C83.304 34.1107 83.08 34.5493 82.8 35.072C82.5387 35.576 82.268 36.052 81.988 36.5C81.932 36.5933 81.8573 36.64 81.764 36.64C81.6893 36.64 81.652 36.6027 81.652 36.528C81.652 36.4907 81.6987 36.3787 81.792 36.192C82.2027 35.464 82.52 34.8573 82.744 34.372C82.9867 33.8867 83.2573 33.3827 83.556 32.86C83.8547 32.3187 84.2 31.8053 84.592 31.32C84.8533 31.04 85.1333 30.8347 85.432 30.704C85.7493 30.5547 86.0573 30.48 86.356 30.48C86.8787 30.48 87.2333 30.6013 87.42 30.844C87.6253 31.068 87.728 31.348 87.728 31.684C87.728 32.0387 87.6533 32.4027 87.504 32.776C87.3547 33.1493 87.2053 33.476 87.056 33.756C86.5893 34.5773 86.2067 35.296 85.908 35.912C85.6093 36.5093 85.348 37.088 85.124 37.648C84.956 38.0587 84.872 38.3947 84.872 38.656C84.872 39.1413 85.0773 39.384 85.488 39.384C85.824 39.384 86.1693 39.2347 86.524 38.936C87.5133 38.1333 88.316 37.1907 88.932 36.108C89.548 35.0253 90.136 33.896 90.696 32.72C90.8827 32.3467 91.116 31.9453 91.396 31.516C91.676 31.068 92.0213 30.6947 92.432 30.396C92.8427 30.0787 93.3187 29.9387 93.86 29.976C93.5987 30.2187 93.2813 30.6667 92.908 31.32C92.5533 31.9733 92.1707 32.7387 91.76 33.616C91.368 34.4933 90.976 35.408 90.584 36.36C90.192 37.312 89.8187 38.2267 89.464 39.104C89.128 39.9627 88.8387 40.6907 88.596 41.288C89.1 41.0827 89.688 40.7653 90.36 40.336C91.0507 39.9253 91.6947 39.384 92.292 38.712C92.7213 38.264 93.104 37.76 93.44 37.2C93.7947 36.6213 94.1493 36.0147 94.504 35.38C94.56 35.3053 94.616 35.268 94.672 35.268C94.7467 35.268 94.784 35.324 94.784 35.436C94.784 35.5293 94.7653 35.604 94.728 35.66C94.392 36.276 94.0373 36.892 93.664 37.508C93.2907 38.124 92.8333 38.7027 92.292 39.244C91.62 39.8787 90.9387 40.42 90.248 40.868C89.576 41.3347 88.9413 41.6707 88.344 41.876C87.896 42.884 87.42 43.808 86.916 44.648C86.4307 45.488 85.8707 46.188 85.236 46.748C84.6013 47.308 83.836 47.6907 82.94 47.896ZM82.772 47.336C83.444 47.1307 84.0227 46.7667 84.508 46.244C84.9933 45.74 85.4133 45.152 85.768 44.48C86.1413 43.808 86.4587 43.136 86.72 42.464C86.1227 42.7813 85.376 43.108 84.48 43.444C83.584 43.7987 82.7347 44.2747 81.932 44.872C81.5773 45.152 81.3067 45.4413 81.12 45.74C80.9333 46.0387 80.84 46.3187 80.84 46.58C80.84 46.8413 80.9333 47.056 81.12 47.224C81.3067 47.392 81.5773 47.476 81.932 47.476C82.044 47.476 82.1653 47.4667 82.296 47.448C82.4453 47.4293 82.604 47.392 82.772 47.336ZM101.741 40.196C101.143 40.196 100.733 40.0093 100.509 39.636C100.285 39.244 100.173 38.8147 100.173 38.348C100.173 38.2547 100.182 38.096 100.201 37.872C100.238 37.6293 100.275 37.4053 100.313 37.2C100.051 37.5547 99.734 37.9467 99.3607 38.376C99.006 38.8053 98.642 39.1693 98.2687 39.468C97.6714 39.9533 97.13 40.196 96.6447 40.196C96.178 40.196 95.814 40 95.5527 39.608C95.31 39.216 95.1887 38.7213 95.1887 38.124C95.1887 37.3587 95.3567 36.584 95.6927 35.8C96.0287 35.016 96.4674 34.2787 97.0087 33.588C97.5687 32.8787 98.1847 32.272 98.8567 31.768C99.2487 31.488 99.7247 31.264 100.285 31.096C100.863 30.9093 101.442 30.816 102.021 30.816C102.674 30.816 103.243 30.9187 103.729 31.124C104.233 31.3107 104.578 31.5813 104.765 31.936C104.373 32.44 103.971 33.0653 103.561 33.812C103.15 34.54 102.795 35.2027 102.497 35.8C102.291 36.2107 102.067 36.724 101.825 37.34C101.582 37.9373 101.461 38.4507 101.461 38.88C101.461 39.0667 101.507 39.2533 101.601 39.44C101.694 39.6267 101.871 39.72 102.133 39.72C102.431 39.72 102.721 39.608 103.001 39.384C103.281 39.16 103.514 38.936 103.701 38.712C104.13 38.2453 104.522 37.732 104.877 37.172C105.231 36.612 105.586 36.0147 105.941 35.38C105.997 35.3053 106.053 35.268 106.109 35.268C106.183 35.268 106.221 35.324 106.221 35.436C106.221 35.5293 106.202 35.604 106.165 35.66C105.847 36.276 105.493 36.892 105.101 37.508C104.709 38.124 104.242 38.7027 103.701 39.244C103.439 39.5053 103.131 39.7293 102.777 39.916C102.422 40.1027 102.077 40.196 101.741 40.196ZM97.2607 39.328C97.6154 39.328 97.998 39.1413 98.4087 38.768C98.838 38.376 99.2487 37.9093 99.6407 37.368C100.051 36.808 100.415 36.276 100.733 35.772C101.069 35.2493 101.33 34.848 101.517 34.568C101.909 33.952 102.273 33.4387 102.609 33.028C102.945 32.6173 103.467 32.3 104.177 32.076C104.214 32.076 104.242 32.076 104.261 32.076C104.298 32.0573 104.335 32.048 104.373 32.048C104.205 31.7867 103.925 31.5907 103.533 31.46C103.141 31.3293 102.758 31.264 102.385 31.264C101.806 31.264 101.246 31.4227 100.705 31.74C100.163 32.0573 99.6687 32.4587 99.2207 32.944C98.7914 33.448 98.3714 33.9987 97.9607 34.596C97.55 35.1933 97.214 35.8 96.9527 36.416C96.71 37.032 96.5887 37.62 96.5887 38.18C96.5887 38.4787 96.6354 38.7493 96.7287 38.992C96.8407 39.216 97.018 39.328 97.2607 39.328ZM112.336 40.168C111.795 40.168 111.366 40 111.048 39.664C110.75 39.328 110.6 38.908 110.6 38.404C110.6 38.1613 110.647 37.8813 110.74 37.564C111.002 36.7427 111.412 35.9307 111.972 35.128C112.551 34.3067 113.027 33.4947 113.4 32.692C113.531 32.4307 113.596 32.1973 113.596 31.992C113.596 31.7867 113.531 31.6373 113.4 31.544C113.288 31.432 113.148 31.376 112.98 31.376C112.738 31.376 112.43 31.4787 112.056 31.684C111.702 31.8707 111.291 32.2347 110.824 32.776C110.544 33.112 110.227 33.5227 109.872 34.008C109.518 34.4933 109.228 34.932 109.004 35.324C108.631 35.9587 108.295 36.6027 107.996 37.256C107.698 37.8907 107.436 38.4787 107.212 39.02C107.026 39.4493 106.802 39.7293 106.54 39.86C106.279 39.972 106.027 40.0187 105.784 40C105.542 39.9813 105.355 39.9813 105.224 40C105.747 38.9733 106.26 37.8907 106.764 36.752C107.268 35.6133 107.698 34.4747 108.052 33.336C108.22 32.8133 108.36 32.3093 108.472 31.824C108.584 31.32 108.631 30.9933 108.612 30.844V30.788C108.612 30.6387 108.687 30.6013 108.836 30.676C109.079 30.8067 109.247 31.0027 109.34 31.264C109.434 31.5067 109.48 31.7867 109.48 32.104C109.48 32.4587 109.434 32.8413 109.34 33.252C109.247 33.644 109.135 33.9987 109.004 34.316C109.247 33.98 109.508 33.644 109.788 33.308C110.068 32.9533 110.376 32.6173 110.712 32.3C111.104 31.908 111.524 31.572 111.972 31.292C112.42 30.9933 112.906 30.844 113.428 30.844C113.932 30.844 114.296 30.956 114.52 31.18C114.763 31.404 114.884 31.7027 114.884 32.076C114.884 32.468 114.772 32.916 114.548 33.42C114.306 33.9987 114.007 34.5773 113.652 35.156C113.316 35.7347 113.008 36.2947 112.728 36.836C112.672 36.948 112.579 37.1253 112.448 37.368C112.336 37.592 112.234 37.844 112.14 38.124C112.103 38.2547 112.066 38.3947 112.028 38.544C111.991 38.6747 111.972 38.8147 111.972 38.964C111.972 39.1507 112.01 39.328 112.084 39.496C112.178 39.6453 112.346 39.72 112.588 39.72C112.906 39.72 113.204 39.6173 113.484 39.412C113.783 39.188 114.035 38.9547 114.24 38.712C114.67 38.2453 115.062 37.732 115.417 37.172C115.79 36.5933 116.154 35.9867 116.508 35.352C116.564 35.2773 116.602 35.24 116.62 35.24C116.695 35.24 116.732 35.324 116.732 35.492C116.732 35.604 116.714 35.688 116.676 35.744C116.34 36.36 115.986 36.9667 115.613 37.564C115.239 38.1427 114.782 38.7027 114.24 39.244C113.998 39.4867 113.718 39.7013 113.4 39.888C113.083 40.0747 112.728 40.168 112.336 40.168ZM123.681 40.196C123.084 40.196 122.673 40.0093 122.449 39.636C122.225 39.244 122.113 38.8147 122.113 38.348C122.113 38.2547 122.123 38.096 122.141 37.872C122.179 37.6293 122.216 37.4053 122.253 37.2C121.992 37.5547 121.675 37.9467 121.301 38.376C120.947 38.8053 120.583 39.1693 120.209 39.468C119.612 39.9533 119.071 40.196 118.585 40.196C118.119 40.196 117.755 40 117.493 39.608C117.251 39.216 117.129 38.7213 117.129 38.124C117.129 37.3587 117.297 36.584 117.633 35.8C117.969 35.016 118.408 34.2787 118.949 33.588C119.509 32.8787 120.125 32.272 120.797 31.768C121.189 31.488 121.665 31.264 122.225 31.096C122.804 30.9093 123.383 30.816 123.961 30.816C124.615 30.816 125.184 30.9187 125.669 31.124C126.173 31.3107 126.519 31.5813 126.705 31.936C126.313 32.44 125.912 33.0653 125.501 33.812C125.091 34.54 124.736 35.2027 124.437 35.8C124.232 36.2107 124.008 36.724 123.765 37.34C123.523 37.9373 123.401 38.4507 123.401 38.88C123.401 39.0667 123.448 39.2533 123.541 39.44C123.635 39.6267 123.812 39.72 124.073 39.72C124.372 39.72 124.661 39.608 124.941 39.384C125.221 39.16 125.455 38.936 125.641 38.712C126.071 38.2453 126.463 37.732 126.817 37.172C127.172 36.612 127.527 36.0147 127.881 35.38C127.937 35.3053 127.993 35.268 128.049 35.268C128.124 35.268 128.161 35.324 128.161 35.436C128.161 35.5293 128.143 35.604 128.105 35.66C127.788 36.276 127.433 36.892 127.041 37.508C126.649 38.124 126.183 38.7027 125.641 39.244C125.38 39.5053 125.072 39.7293 124.717 39.916C124.363 40.1027 124.017 40.196 123.681 40.196ZM119.201 39.328C119.556 39.328 119.939 39.1413 120.349 38.768C120.779 38.376 121.189 37.9093 121.581 37.368C121.992 36.808 122.356 36.276 122.673 35.772C123.009 35.2493 123.271 34.848 123.457 34.568C123.849 33.952 124.213 33.4387 124.549 33.028C124.885 32.6173 125.408 32.3 126.117 32.076C126.155 32.076 126.183 32.076 126.201 32.076C126.239 32.0573 126.276 32.048 126.313 32.048C126.145 31.7867 125.865 31.5907 125.473 31.46C125.081 31.3293 124.699 31.264 124.325 31.264C123.747 31.264 123.187 31.4227 122.645 31.74C122.104 32.0573 121.609 32.4587 121.161 32.944C120.732 33.448 120.312 33.9987 119.901 34.596C119.491 35.1933 119.155 35.8 118.893 36.416C118.651 37.032 118.529 37.62 118.529 38.18C118.529 38.4787 118.576 38.7493 118.669 38.992C118.781 39.216 118.959 39.328 119.201 39.328ZM127.053 41.512V40.84H139.037V41.512H127.053ZM147.99 40.252C147.318 40.252 146.804 40.056 146.45 39.664C146.095 39.272 145.843 38.796 145.694 38.236C145.563 37.6573 145.498 37.1067 145.498 36.584C145.498 36.0987 145.544 35.604 145.638 35.1C145.75 34.596 145.946 34.1667 146.226 33.812C146.394 33.6067 146.59 33.448 146.814 33.336C147.056 33.224 147.159 33.2333 147.122 33.364C147.084 33.4387 147.066 33.5133 147.066 33.588C147.084 33.7373 147.168 33.8587 147.318 33.952C147.467 34.0267 147.654 34.064 147.878 34.064C148.102 34.064 148.335 34.0267 148.578 33.952C148.839 33.8773 149.072 33.7653 149.278 33.616C149.52 33.448 149.735 33.2333 149.922 32.972C150.108 32.692 150.202 32.4027 150.202 32.104C150.202 31.8053 150.118 31.6 149.95 31.488C149.8 31.376 149.623 31.32 149.418 31.32C149.324 31.32 149.222 31.3293 149.11 31.348C148.998 31.3667 148.895 31.3947 148.802 31.432C148.204 31.6187 147.607 31.9733 147.01 32.496C146.431 33 145.88 33.588 145.358 34.26C144.854 34.932 144.396 35.604 143.986 36.276C143.724 36.724 143.444 37.2467 143.146 37.844C142.847 38.4227 142.651 38.8893 142.558 39.244C142.464 39.58 142.306 39.7947 142.082 39.888C141.876 39.9813 141.662 40.0187 141.438 40C141.214 40 141.036 40 140.906 40C140.999 39.7387 141.12 39.384 141.27 38.936C141.438 38.488 141.606 38.04 141.774 37.592C141.942 37.1253 142.082 36.7613 142.194 36.5C142.679 35.3053 143.202 34.0267 143.762 32.664C144.34 31.3013 144.956 29.948 145.61 28.604C146.282 27.2413 147.01 25.9627 147.794 24.768C148.596 23.5733 149.455 22.5467 150.37 21.688C151.303 20.8107 152.311 20.176 153.394 19.784C153.487 19.7653 153.59 19.7467 153.702 19.728C153.814 19.7093 153.926 19.7 154.038 19.7C154.336 19.7 154.588 19.7653 154.794 19.896C155.055 20.064 155.186 20.3533 155.186 20.764C155.186 21.0813 155.102 21.4547 154.934 21.884C154.635 22.6307 154.15 23.4333 153.478 24.292C152.806 25.1507 152.012 26.028 151.098 26.924C150.015 27.9507 148.979 28.8747 147.99 29.696C147 30.4987 146.179 31.1427 145.526 31.628C145.134 32.4867 144.807 33.252 144.546 33.924C144.284 34.5773 144.107 35.0347 144.014 35.296C144.424 34.6987 144.882 34.1107 145.386 33.532C145.89 32.9347 146.403 32.44 146.926 32.048C148.046 31.208 149.1 30.788 150.09 30.788C150.65 30.788 151.032 30.956 151.238 31.292C151.294 31.3667 151.331 31.46 151.35 31.572C151.368 31.684 151.378 31.7867 151.378 31.88C151.378 32.2347 151.284 32.5893 151.098 32.944C150.911 33.28 150.687 33.5413 150.426 33.728C150.127 33.952 149.772 34.1387 149.362 34.288C148.97 34.4187 148.587 34.484 148.214 34.484C147.822 34.484 147.486 34.4 147.206 34.232L146.982 34.092C146.944 34.372 146.907 34.6987 146.87 35.072C146.832 35.4267 146.814 35.8 146.814 36.192C146.814 36.3787 146.814 36.5653 146.814 36.752C146.832 36.92 146.851 37.0973 146.87 37.284C146.907 37.5827 146.963 37.928 147.038 38.32C147.131 38.6933 147.28 39.02 147.486 39.3C147.691 39.58 147.962 39.7293 148.298 39.748C148.615 39.748 148.923 39.636 149.222 39.412C149.52 39.188 149.772 38.9547 149.978 38.712C150.407 38.2453 150.771 37.7787 151.07 37.312C151.387 36.8267 151.779 36.1547 152.246 35.296C152.283 35.24 152.311 35.212 152.33 35.212C152.404 35.212 152.442 35.296 152.442 35.464C152.442 35.576 152.414 35.688 152.358 35.8C152.059 36.36 151.723 36.948 151.35 37.564C150.976 38.18 150.519 38.7587 149.978 39.3C149.735 39.5427 149.436 39.7667 149.082 39.972C148.746 40.1587 148.382 40.252 147.99 40.252ZM145.778 31.068C146.842 30.2653 147.803 29.4627 148.662 28.66C149.52 27.8573 150.398 26.9893 151.294 26.056C151.555 25.776 151.891 25.4027 152.302 24.936C152.731 24.4693 153.142 23.9653 153.534 23.424C153.944 22.8827 154.252 22.36 154.458 21.856C154.644 21.408 154.738 21.044 154.738 20.764C154.738 20.26 154.514 20.008 154.066 20.008C153.823 20.008 153.552 20.0827 153.254 20.232C152.955 20.3813 152.675 20.5867 152.414 20.848C151.536 21.6693 150.687 22.668 149.866 23.844C149.044 25.02 148.288 26.2427 147.598 27.512C146.907 28.7627 146.3 29.948 145.778 31.068ZM154.313 47.896C154.014 47.9707 153.715 48.008 153.417 48.008C152.875 48.008 152.465 47.8773 152.185 47.616C151.905 47.3547 151.765 47.028 151.765 46.636C151.765 46.3 151.877 45.936 152.101 45.544C152.325 45.1707 152.661 44.8347 153.109 44.536C153.687 44.144 154.21 43.8267 154.677 43.584C155.162 43.3413 155.685 43.0987 156.245 42.856C156.805 42.632 157.505 42.324 158.345 41.932C158.438 41.7267 158.541 41.484 158.653 41.204C158.765 40.924 158.951 40.4573 159.213 39.804C159.474 39.1507 159.857 38.18 160.361 36.892C159.95 37.396 159.539 37.8627 159.129 38.292C158.718 38.7213 158.382 39.0573 158.121 39.3C157.747 39.58 157.383 39.804 157.029 39.972C156.693 40.1213 156.357 40.196 156.021 40.196C155.573 40.196 155.255 40.0653 155.069 39.804C154.901 39.5427 154.817 39.2347 154.817 38.88C154.817 38.5813 154.854 38.2733 154.929 37.956C155.022 37.6387 155.125 37.34 155.237 37.06C155.498 36.4067 155.778 35.7907 156.077 35.212C156.394 34.6147 156.702 33.9987 157.001 33.364C157.075 33.2147 157.178 32.972 157.309 32.636C157.458 32.3 157.533 31.992 157.533 31.712C157.533 31.3947 157.393 31.236 157.113 31.236C156.851 31.236 156.581 31.3667 156.301 31.628C156.039 31.8707 155.806 32.1507 155.601 32.468C155.395 32.7853 155.237 33.0373 155.125 33.224C155.125 33.224 155.031 33.4013 154.845 33.756C154.677 34.1107 154.453 34.5493 154.173 35.072C153.911 35.576 153.641 36.052 153.361 36.5C153.305 36.5933 153.23 36.64 153.137 36.64C153.062 36.64 153.025 36.6027 153.025 36.528C153.025 36.4907 153.071 36.3787 153.165 36.192C153.575 35.464 153.893 34.8573 154.117 34.372C154.359 33.8867 154.63 33.3827 154.929 32.86C155.227 32.3187 155.573 31.8053 155.965 31.32C156.226 31.04 156.506 30.8347 156.805 30.704C157.122 30.5547 157.43 30.48 157.729 30.48C158.251 30.48 158.606 30.6013 158.793 30.844C158.998 31.068 159.101 31.348 159.101 31.684C159.101 32.0387 159.026 32.4027 158.877 32.776C158.727 33.1493 158.578 33.476 158.429 33.756C157.962 34.5773 157.579 35.296 157.281 35.912C156.982 36.5093 156.721 37.088 156.497 37.648C156.329 38.0587 156.245 38.3947 156.245 38.656C156.245 39.1413 156.45 39.384 156.861 39.384C157.197 39.384 157.542 39.2347 157.897 38.936C158.886 38.1333 159.689 37.1907 160.305 36.108C160.921 35.0253 161.509 33.896 162.069 32.72C162.255 32.3467 162.489 31.9453 162.769 31.516C163.049 31.068 163.394 30.6947 163.805 30.396C164.215 30.0787 164.691 29.9387 165.233 29.976C164.971 30.2187 164.654 30.6667 164.281 31.32C163.926 31.9733 163.543 32.7387 163.133 33.616C162.741 34.4933 162.349 35.408 161.957 36.36C161.565 37.312 161.191 38.2267 160.837 39.104C160.501 39.9627 160.211 40.6907 159.969 41.288C160.473 41.0827 161.061 40.7653 161.733 40.336C162.423 39.9253 163.067 39.384 163.665 38.712C164.094 38.264 164.477 37.76 164.813 37.2C165.167 36.6213 165.522 36.0147 165.877 35.38C165.933 35.3053 165.989 35.268 166.045 35.268C166.119 35.268 166.157 35.324 166.157 35.436C166.157 35.5293 166.138 35.604 166.101 35.66C165.765 36.276 165.41 36.892 165.037 37.508C164.663 38.124 164.206 38.7027 163.665 39.244C162.993 39.8787 162.311 40.42 161.621 40.868C160.949 41.3347 160.314 41.6707 159.717 41.876C159.269 42.884 158.793 43.808 158.289 44.648C157.803 45.488 157.243 46.188 156.609 46.748C155.974 47.308 155.209 47.6907 154.313 47.896ZM154.145 47.336C154.817 47.1307 155.395 46.7667 155.881 46.244C156.366 45.74 156.786 45.152 157.141 44.48C157.514 43.808 157.831 43.136 158.093 42.464C157.495 42.7813 156.749 43.108 155.853 43.444C154.957 43.7987 154.107 44.2747 153.305 44.872C152.95 45.152 152.679 45.4413 152.493 45.74C152.306 46.0387 152.213 46.3187 152.213 46.58C152.213 46.8413 152.306 47.056 152.493 47.224C152.679 47.392 152.95 47.476 153.305 47.476C153.417 47.476 153.538 47.4667 153.669 47.448C153.818 47.4293 153.977 47.392 154.145 47.336ZM167.037 47.952C166.907 47.9707 166.785 47.98 166.673 47.98C166.561 47.9987 166.449 48.008 166.337 48.008C165.703 48.008 165.227 47.84 164.909 47.504C164.573 47.168 164.405 46.7667 164.405 46.3C164.405 45.908 164.527 45.4973 164.769 45.068C164.993 44.6573 165.339 44.3027 165.805 44.004C166.72 43.4067 167.756 42.856 168.913 42.352C170.089 41.8667 171.237 41.3067 172.357 40.672C172.413 40.5227 172.469 40.3547 172.525 40.168C172.6 40 172.656 39.8227 172.693 39.636C172.749 39.3747 172.777 39.1413 172.777 38.936C172.777 38.488 172.656 38.1613 172.413 37.956C172.189 37.7507 171.881 37.648 171.489 37.648C171.06 37.648 170.575 37.76 170.033 37.984C169.884 38.04 169.716 38.1053 169.529 38.18C169.343 38.2547 169.147 38.3387 168.941 38.432C168.755 38.8053 168.475 39.1413 168.101 39.44C167.747 39.7387 167.448 39.9067 167.205 39.944C167.149 39.9627 167.065 39.972 166.953 39.972C166.599 39.972 166.421 39.8133 166.421 39.496C166.421 39.1787 166.589 38.9267 166.925 38.74C167.429 38.4413 167.905 38.124 168.353 37.788C168.82 37.452 169.296 37.0507 169.781 36.584C170.285 36.0987 170.855 35.5013 171.489 34.792C171.881 34.344 172.283 33.9147 172.693 33.504C173.123 33.0747 173.552 32.664 173.981 32.272C173.851 32.2347 173.645 32.2067 173.365 32.188C173.085 32.1507 172.796 32.1133 172.497 32.076C172.217 32.0387 171.993 32.0107 171.825 31.992C171.713 31.9733 171.601 31.964 171.489 31.964C171.396 31.964 171.303 31.964 171.209 31.964C170.799 31.964 170.416 32.0387 170.061 32.188C169.725 32.3187 169.408 32.5893 169.109 33C168.867 33.336 168.587 33.784 168.269 34.344C167.971 34.8853 167.588 35.5667 167.121 36.388C167.065 36.5 167.009 36.556 166.953 36.556C166.879 36.556 166.841 36.4907 166.841 36.36C166.841 36.2667 166.879 36.1547 166.953 36.024C167.327 35.3893 167.625 34.8293 167.849 34.344C168.073 33.8587 168.353 33.3267 168.689 32.748C168.951 32.2813 169.212 31.908 169.473 31.628C169.753 31.3293 170.117 31.124 170.565 31.012C170.715 30.9747 170.864 30.9467 171.013 30.928C171.181 30.9093 171.349 30.9 171.517 30.9C171.891 30.9 172.255 30.9187 172.609 30.956C172.983 30.9933 173.319 31.012 173.617 31.012C173.767 31.012 174 31.012 174.317 31.012C174.653 30.9933 174.98 30.9747 175.297 30.956C175.615 30.9187 175.829 30.872 175.941 30.816C176.091 30.872 176.165 31.0027 176.165 31.208C176.165 31.4507 176.044 31.7213 175.801 32.02C175.559 32.3 175.195 32.412 174.709 32.356C174.243 32.6547 173.729 33.084 173.169 33.644C172.609 34.204 172.133 34.6893 171.741 35.1C171.592 35.268 171.359 35.5013 171.041 35.8C170.724 36.0987 170.388 36.4253 170.033 36.78C169.697 37.1347 169.389 37.48 169.109 37.816C169.109 37.8347 169.1 37.8533 169.081 37.872C169.081 37.8907 169.081 37.9187 169.081 37.956C169.436 37.732 169.847 37.5453 170.313 37.396C170.687 37.284 171.013 37.2093 171.293 37.172C171.592 37.116 171.863 37.088 172.105 37.088C172.74 37.088 173.179 37.2467 173.421 37.564C173.683 37.8813 173.813 38.2827 173.813 38.768C173.813 39.0293 173.785 39.3187 173.729 39.636C174.345 39.076 174.924 38.46 175.465 37.788C176.007 37.0973 176.455 36.4347 176.809 35.8C176.977 35.5387 177.127 35.408 177.257 35.408C177.295 35.408 177.313 35.436 177.313 35.492C177.313 35.5667 177.276 35.6693 177.201 35.8C176.865 36.3973 176.501 36.9853 176.109 37.564C175.717 38.124 175.288 38.6467 174.821 39.132C174.485 39.468 174.084 39.8227 173.617 40.196C173.561 40.4013 173.496 40.616 173.421 40.84C173.347 41.064 173.263 41.288 173.169 41.512C172.74 42.576 172.217 43.5653 171.601 44.48C171.004 45.3947 170.323 46.1507 169.557 46.748C168.811 47.364 167.971 47.7653 167.037 47.952ZM166.869 47.476C167.821 47.196 168.615 46.7107 169.249 46.02C169.903 45.348 170.463 44.5733 170.929 43.696C171.396 42.8373 171.825 41.9973 172.217 41.176C171.769 41.4747 171.163 41.792 170.397 42.128C169.651 42.4827 168.885 42.8373 168.101 43.192C167.317 43.5653 166.636 43.948 166.057 44.34C165.665 44.6013 165.376 44.9093 165.189 45.264C165.003 45.6373 164.909 45.992 164.909 46.328C164.909 46.6827 165.012 46.9813 165.217 47.224C165.441 47.4667 165.759 47.588 166.169 47.588C166.263 47.588 166.365 47.5787 166.477 47.56C166.608 47.5413 166.739 47.5133 166.869 47.476ZM179.152 47.896C178.853 47.9707 178.554 48.008 178.256 48.008C177.714 48.008 177.304 47.8773 177.024 47.616C176.744 47.3547 176.604 47.028 176.604 46.636C176.604 46.3 176.716 45.936 176.94 45.544C177.164 45.1707 177.5 44.8347 177.948 44.536C178.526 44.144 179.049 43.8267 179.516 43.584C180.001 43.3413 180.524 43.0987 181.084 42.856C181.644 42.632 182.344 42.324 183.184 41.932C183.277 41.7267 183.38 41.484 183.492 41.204C183.604 40.924 183.79 40.4573 184.052 39.804C184.313 39.1507 184.696 38.18 185.2 36.892C184.789 37.396 184.378 37.8627 183.968 38.292C183.557 38.7213 183.221 39.0573 182.96 39.3C182.586 39.58 182.222 39.804 181.868 39.972C181.532 40.1213 181.196 40.196 180.86 40.196C180.412 40.196 180.094 40.0653 179.908 39.804C179.74 39.5427 179.656 39.2347 179.656 38.88C179.656 38.5813 179.693 38.2733 179.768 37.956C179.861 37.6387 179.964 37.34 180.076 37.06C180.337 36.4067 180.617 35.7907 180.916 35.212C181.233 34.6147 181.541 33.9987 181.84 33.364C181.914 33.2147 182.017 32.972 182.148 32.636C182.297 32.3 182.372 31.992 182.372 31.712C182.372 31.3947 182.232 31.236 181.952 31.236C181.69 31.236 181.42 31.3667 181.14 31.628C180.878 31.8707 180.645 32.1507 180.44 32.468C180.234 32.7853 180.076 33.0373 179.964 33.224C179.964 33.224 179.87 33.4013 179.684 33.756C179.516 34.1107 179.292 34.5493 179.012 35.072C178.75 35.576 178.48 36.052 178.2 36.5C178.144 36.5933 178.069 36.64 177.976 36.64C177.901 36.64 177.864 36.6027 177.864 36.528C177.864 36.4907 177.91 36.3787 178.004 36.192C178.414 35.464 178.732 34.8573 178.956 34.372C179.198 33.8867 179.469 33.3827 179.768 32.86C180.066 32.3187 180.412 31.8053 180.804 31.32C181.065 31.04 181.345 30.8347 181.644 30.704C181.961 30.5547 182.269 30.48 182.568 30.48C183.09 30.48 183.445 30.6013 183.632 30.844C183.837 31.068 183.94 31.348 183.94 31.684C183.94 32.0387 183.865 32.4027 183.716 32.776C183.566 33.1493 183.417 33.476 183.268 33.756C182.801 34.5773 182.418 35.296 182.12 35.912C181.821 36.5093 181.56 37.088 181.336 37.648C181.168 38.0587 181.084 38.3947 181.084 38.656C181.084 39.1413 181.289 39.384 181.7 39.384C182.036 39.384 182.381 39.2347 182.736 38.936C183.725 38.1333 184.528 37.1907 185.144 36.108C185.76 35.0253 186.348 33.896 186.908 32.72C187.094 32.3467 187.328 31.9453 187.608 31.516C187.888 31.068 188.233 30.6947 188.644 30.396C189.054 30.0787 189.53 29.9387 190.072 29.976C189.81 30.2187 189.493 30.6667 189.12 31.32C188.765 31.9733 188.382 32.7387 187.972 33.616C187.58 34.4933 187.188 35.408 186.796 36.36C186.404 37.312 186.03 38.2267 185.676 39.104C185.34 39.9627 185.05 40.6907 184.808 41.288C185.312 41.0827 185.9 40.7653 186.572 40.336C187.262 39.9253 187.906 39.384 188.504 38.712C188.933 38.264 189.316 37.76 189.652 37.2C190.006 36.6213 190.361 36.0147 190.716 35.38C190.772 35.3053 190.828 35.268 190.884 35.268C190.958 35.268 190.996 35.324 190.996 35.436C190.996 35.5293 190.977 35.604 190.94 35.66C190.604 36.276 190.249 36.892 189.876 37.508C189.502 38.124 189.045 38.7027 188.504 39.244C187.832 39.8787 187.15 40.42 186.46 40.868C185.788 41.3347 185.153 41.6707 184.556 41.876C184.108 42.884 183.632 43.808 183.128 44.648C182.642 45.488 182.082 46.188 181.448 46.748C180.813 47.308 180.048 47.6907 179.152 47.896ZM178.984 47.336C179.656 47.1307 180.234 46.7667 180.72 46.244C181.205 45.74 181.625 45.152 181.98 44.48C182.353 43.808 182.67 43.136 182.932 42.464C182.334 42.7813 181.588 43.108 180.692 43.444C179.796 43.7987 178.946 44.2747 178.144 44.872C177.789 45.152 177.518 45.4413 177.332 45.74C177.145 46.0387 177.052 46.3187 177.052 46.58C177.052 46.8413 177.145 47.056 177.332 47.224C177.518 47.392 177.789 47.476 178.144 47.476C178.256 47.476 178.377 47.4667 178.508 47.448C178.657 47.4293 178.816 47.392 178.984 47.336ZM193.416 40.168C192.744 40.168 192.278 39.972 192.016 39.58C191.755 39.188 191.624 38.6933 191.624 38.096C191.624 37.48 191.718 36.808 191.904 36.08C192.11 35.352 192.343 34.6427 192.604 33.952C192.884 33.2613 193.146 32.6547 193.388 32.132C193.65 31.6093 193.827 31.2453 193.92 31.04C194.256 30.3307 194.667 29.528 195.152 28.632C195.656 27.736 196.216 26.8213 196.832 25.888C197.467 24.9547 198.13 24.068 198.82 23.228C199.53 22.388 200.258 21.66 201.004 21.044C201.77 20.428 202.526 20.008 203.272 19.784C203.478 19.728 203.664 19.7 203.832 19.7C204.15 19.7 204.411 19.7933 204.616 19.98C204.84 20.148 204.952 20.4467 204.952 20.876C204.952 21.1747 204.878 21.548 204.728 21.996C204.486 22.6493 204.075 23.3773 203.496 24.18C202.918 24.964 202.236 25.7853 201.452 26.644C200.668 27.484 199.838 28.3147 198.96 29.136C198.102 29.9573 197.262 30.7227 196.44 31.432C195.619 32.1413 194.891 32.748 194.256 33.252C194.088 33.6067 193.93 33.952 193.78 34.288C193.65 34.624 193.528 34.9507 193.416 35.268C193.36 35.436 193.276 35.688 193.164 36.024C193.052 36.36 192.95 36.7333 192.856 37.144C192.763 37.5547 192.716 37.9467 192.716 38.32C192.716 38.6933 192.791 39.02 192.94 39.3C193.09 39.5613 193.36 39.692 193.752 39.692C194.07 39.692 194.359 39.5893 194.62 39.384C194.9 39.1787 195.152 38.9547 195.376 38.712C196.16 37.816 196.86 36.78 197.476 35.604C197.551 35.4733 197.607 35.408 197.644 35.408C197.682 35.408 197.7 35.464 197.7 35.576C197.7 35.744 197.663 35.9213 197.588 36.108C197.234 36.7613 196.907 37.312 196.608 37.76C196.328 38.208 195.918 38.7027 195.376 39.244C195.134 39.4867 194.844 39.7013 194.508 39.888C194.191 40.0747 193.827 40.168 193.416 40.168ZM194.564 32.608C195.143 32.104 195.815 31.5067 196.58 30.816C197.346 30.1067 198.13 29.3507 198.932 28.548C199.735 27.7453 200.491 26.9427 201.2 26.14C201.928 25.3373 202.554 24.5813 203.076 23.872C203.618 23.1627 203.982 22.5467 204.168 22.024C204.336 21.5387 204.42 21.1653 204.42 20.904C204.42 20.4187 204.206 20.176 203.776 20.176C203.534 20.176 203.244 20.2693 202.908 20.456C202.572 20.624 202.264 20.848 201.984 21.128C201.518 21.576 200.967 22.22 200.332 23.06C199.716 23.8813 199.063 24.824 198.372 25.888C197.682 26.952 197 28.0627 196.328 29.22C195.675 30.3773 195.087 31.5067 194.564 32.608ZM201.125 40.56C200.416 40.56 199.8 40.336 199.277 39.888C198.773 39.4213 198.521 38.712 198.521 37.76C198.521 37.1627 198.624 36.5467 198.829 35.912C199.053 35.2587 199.296 34.68 199.557 34.176C200.042 33.2613 200.649 32.468 201.377 31.796C202.124 31.1053 203.01 30.76 204.037 30.76C205.026 30.76 205.717 31.0307 206.109 31.572C206.501 32.1133 206.697 32.776 206.697 33.56C206.697 33.8773 206.669 34.204 206.613 34.54C206.464 35.4547 206.156 36.3413 205.689 37.2C205.82 37.3867 205.988 37.5453 206.193 37.676C206.417 37.788 206.66 37.844 206.921 37.844C207.369 37.844 207.752 37.7227 208.069 37.48C208.386 37.2373 208.657 36.9387 208.881 36.584C209.124 36.2107 209.329 35.8653 209.497 35.548C209.609 35.3427 209.712 35.24 209.805 35.24C209.861 35.24 209.889 35.2773 209.889 35.352C209.889 35.4267 209.833 35.5947 209.721 35.856C209.404 36.4907 209.03 37.0413 208.601 37.508C208.172 37.9747 207.612 38.208 206.921 38.208C206.286 38.208 205.801 37.984 205.465 37.536C204.942 38.3947 204.308 39.1133 203.561 39.692C202.814 40.2707 202.002 40.56 201.125 40.56ZM201.181 40.224C202.096 40.224 203.001 39.776 203.897 38.88C204.158 38.6187 204.392 38.348 204.597 38.068C204.821 37.7693 205.017 37.4707 205.185 37.172C204.942 36.892 204.765 36.5933 204.653 36.276C204.56 35.94 204.513 35.6227 204.513 35.324C204.513 34.8573 204.597 34.4467 204.765 34.092C204.933 33.7187 205.166 33.532 205.465 33.532C205.614 33.532 205.754 33.6067 205.885 33.756C206.034 33.9053 206.128 34.1387 206.165 34.456C206.221 34.1947 206.249 33.9147 206.249 33.616C206.249 32.9067 206.118 32.3467 205.857 31.936C205.596 31.5067 205.157 31.292 204.541 31.292C204.168 31.292 203.785 31.4413 203.393 31.74C203.001 32.02 202.628 32.3653 202.273 32.776C201.937 33.1867 201.638 33.6067 201.377 34.036C201.116 34.4653 200.92 34.82 200.789 35.1C200.472 35.7907 200.238 36.4067 200.089 36.948C199.958 37.4893 199.893 37.9653 199.893 38.376C199.893 38.9733 200.014 39.4307 200.257 39.748C200.518 40.0653 200.826 40.224 201.181 40.224ZM211.875 40.196C211.222 40.196 210.755 39.9627 210.475 39.496C210.195 39.0293 210.055 38.5067 210.055 37.928C210.055 37.5173 210.111 37.116 210.223 36.724C210.41 36.0707 210.643 35.4173 210.923 34.764C211.222 34.092 211.502 33.4573 211.763 32.86C211.801 32.7667 211.866 32.608 211.959 32.384C212.053 32.1413 212.109 31.908 212.127 31.684V31.6C212.127 31.4507 212.081 31.3387 211.987 31.264C211.913 31.1893 211.829 31.152 211.735 31.152C211.586 31.152 211.465 31.1893 211.371 31.264C211.334 31.3013 211.287 31.32 211.231 31.32C211.175 31.32 211.147 31.292 211.147 31.236C211.147 31.068 211.241 30.9467 211.427 30.872C211.689 30.7413 211.959 30.676 212.239 30.676C212.575 30.676 212.865 30.788 213.107 31.012C213.369 31.2173 213.499 31.5347 213.499 31.964C213.499 32.5053 213.378 33.0467 213.135 33.588C212.893 34.1107 212.65 34.6333 212.407 35.156C212.202 35.5853 211.997 36.0333 211.791 36.5C211.586 36.948 211.437 37.3773 211.343 37.788C211.287 38.0307 211.259 38.2733 211.259 38.516C211.259 38.8147 211.334 39.076 211.483 39.3C211.633 39.5053 211.894 39.608 212.267 39.608C212.753 39.608 213.21 39.4493 213.639 39.132C214.069 38.8147 214.461 38.4133 214.815 37.928C215.189 37.4427 215.506 36.948 215.767 36.444C216.029 35.9213 216.225 35.4733 216.355 35.1C216.337 34.9507 216.309 34.7267 216.271 34.428C216.234 34.1107 216.215 33.756 216.215 33.364C216.215 33.0653 216.234 32.7573 216.271 32.44C216.309 32.104 216.365 31.768 216.439 31.432C216.495 31.2267 216.607 30.9653 216.775 30.648C216.943 30.3307 217.158 30.172 217.419 30.172C217.625 30.1347 217.783 30.2093 217.895 30.396C218.007 30.564 218.063 30.7973 218.063 31.096C218.063 31.6747 217.951 32.356 217.727 33.14C217.503 33.924 217.205 34.6987 216.831 35.464C216.813 36.0053 216.887 36.4253 217.055 36.724C217.242 37.0227 217.485 37.172 217.783 37.172C218.231 37.172 218.642 36.9293 219.015 36.444C219.407 35.9587 219.734 35.4453 219.995 34.904C220.126 34.6613 220.238 34.54 220.331 34.54C220.387 34.54 220.415 34.5773 220.415 34.652C220.415 34.7827 220.369 34.932 220.275 35.1C220.089 35.4733 219.883 35.856 219.659 36.248C219.454 36.6213 219.193 36.9293 218.875 37.172C218.577 37.4147 218.203 37.536 217.755 37.536C217.363 37.536 217.065 37.4053 216.859 37.144C216.654 36.8827 216.523 36.5747 216.467 36.22C216.225 36.6493 215.973 37.06 215.711 37.452C215.469 37.844 215.226 38.18 214.983 38.46C214.573 38.964 214.106 39.384 213.583 39.72C213.079 40.0373 212.51 40.196 211.875 40.196ZM226.981 40.196C226.383 40.196 225.973 40.0093 225.749 39.636C225.525 39.244 225.413 38.8147 225.413 38.348C225.413 38.2547 225.422 38.096 225.441 37.872C225.478 37.6293 225.515 37.4053 225.553 37.2C225.291 37.5547 224.974 37.9467 224.601 38.376C224.246 38.8053 223.882 39.1693 223.509 39.468C222.911 39.9533 222.37 40.196 221.885 40.196C221.418 40.196 221.054 40 220.793 39.608C220.55 39.216 220.429 38.7213 220.429 38.124C220.429 37.3587 220.597 36.584 220.933 35.8C221.269 35.016 221.707 34.2787 222.249 33.588C222.809 32.8787 223.425 32.272 224.097 31.768C224.489 31.488 224.965 31.264 225.525 31.096C226.103 30.9093 226.682 30.816 227.261 30.816C227.914 30.816 228.483 30.9187 228.969 31.124C229.473 31.3107 229.818 31.5813 230.005 31.936C229.613 32.44 229.211 33.0653 228.801 33.812C228.39 34.54 228.035 35.2027 227.737 35.8C227.531 36.2107 227.307 36.724 227.065 37.34C226.822 37.9373 226.701 38.4507 226.701 38.88C226.701 39.0667 226.747 39.2533 226.841 39.44C226.934 39.6267 227.111 39.72 227.373 39.72C227.671 39.72 227.961 39.608 228.241 39.384C228.521 39.16 228.754 38.936 228.941 38.712C229.37 38.2453 229.762 37.732 230.117 37.172C230.471 36.612 230.826 36.0147 231.181 35.38C231.237 35.3053 231.293 35.268 231.349 35.268C231.423 35.268 231.461 35.324 231.461 35.436C231.461 35.5293 231.442 35.604 231.405 35.66C231.087 36.276 230.733 36.892 230.341 37.508C229.949 38.124 229.482 38.7027 228.941 39.244C228.679 39.5053 228.371 39.7293 228.017 39.916C227.662 40.1027 227.317 40.196 226.981 40.196ZM222.501 39.328C222.855 39.328 223.238 39.1413 223.649 38.768C224.078 38.376 224.489 37.9093 224.881 37.368C225.291 36.808 225.655 36.276 225.973 35.772C226.309 35.2493 226.57 34.848 226.757 34.568C227.149 33.952 227.513 33.4387 227.849 33.028C228.185 32.6173 228.707 32.3 229.417 32.076C229.454 32.076 229.482 32.076 229.501 32.076C229.538 32.0573 229.575 32.048 229.613 32.048C229.445 31.7867 229.165 31.5907 228.773 31.46C228.381 31.3293 227.998 31.264 227.625 31.264C227.046 31.264 226.486 31.4227 225.945 31.74C225.403 32.0573 224.909 32.4587 224.461 32.944C224.031 33.448 223.611 33.9987 223.201 34.596C222.79 35.1933 222.454 35.8 222.193 36.416C221.95 37.032 221.829 37.62 221.829 38.18C221.829 38.4787 221.875 38.7493 221.969 38.992C222.081 39.216 222.258 39.328 222.501 39.328Z" fill="white"/>
</svg>
