<svg width="40" height="40" viewBox="0 0 40 40" fill="none" xmlns="http://www.w3.org/2000/svg">
<path d="M39.8797 11.7541C39.7824 9.62523 39.4443 8.17133 38.9499 6.89945C38.4478 5.56488 37.6605 4.35594 36.643 3.35695C35.6441 2.33936 34.4351 1.55191 33.1005 1.04953C31.8283 0.555391 30.3748 0.217578 28.2459 0.120859C26.113 0.0232031 25.4315 0 20 0C14.5685 0 13.887 0.0232031 11.7541 0.120312C9.62523 0.217578 8.17172 0.555703 6.89945 1.05008C5.56485 1.55223 4.35588 2.33952 3.35687 3.35703C2.33929 4.35591 1.55184 5.56474 1.04945 6.89922C0.555313 8.17148 0.2175 9.62531 0.120781 11.7539C0.0232031 13.887 0 14.5682 0 19.9997C0 25.4315 0.0232031 26.113 0.120859 28.2458C0.217891 30.3745 0.556016 31.8283 1.05039 33.1006C1.55254 34.4351 2.3398 35.6439 3.35727 36.6428C4.35618 37.6603 5.56512 38.4476 6.89969 38.9496C8.17172 39.4443 9.62555 39.7821 11.7545 39.8795C13.8877 39.9768 14.5687 39.9998 20.0003 39.9998C25.4318 39.9998 26.1133 39.9768 28.2462 39.8795C30.3751 39.7821 31.8286 39.4443 33.1009 38.9496C34.4294 38.4359 35.636 37.6502 36.6433 36.643C37.6505 35.6357 38.4362 34.4291 38.9499 33.1005C39.4446 31.8283 39.7824 30.3745 39.8798 28.2459C39.9768 26.1127 40 25.4315 40 20C40 14.5682 39.9768 13.887 39.8797 11.7541ZM36.2797 28.082C36.1909 30.0321 35.8649 31.0911 35.5912 31.7957C35.2584 32.6583 34.7488 33.4417 34.0951 34.0954C33.4413 34.7491 32.658 35.2588 31.7954 35.5915C31.0907 35.8652 30.0318 36.1912 28.0817 36.28C25.9733 36.3764 25.3406 36.3966 20.0001 36.3966C14.6592 36.3966 14.0269 36.3764 11.918 36.28C9.96836 36.1912 8.90945 35.8652 8.20445 35.5915C7.3358 35.2708 6.55004 34.7595 5.90492 34.0952C5.2406 33.4502 4.72932 32.6644 4.40867 31.7957C4.13492 31.091 3.80898 30.0321 3.72016 28.082C3.62406 25.9733 3.60359 25.3406 3.60359 20.0004C3.60359 14.6598 3.62406 14.0275 3.72016 11.9184C3.80922 9.96836 4.13492 8.90938 4.40867 8.20477C4.72942 7.33604 5.24069 6.55019 5.90492 5.90492C6.55004 5.24058 7.33594 4.72939 8.20477 4.40898C8.90945 4.13492 9.96836 3.8093 11.9184 3.72016C14.0272 3.62406 14.6598 3.60359 20.0001 3.60359H19.9998C25.3401 3.60359 25.9727 3.62406 28.0818 3.72047C30.0318 3.8093 31.0905 4.13523 31.7954 4.40898C32.664 4.72971 33.4497 5.24086 34.0949 5.90492C34.7593 6.55003 35.2705 7.33593 35.5909 8.20477C35.8649 8.90945 36.1909 9.96836 36.2797 11.9184C36.3758 14.0272 36.3963 14.6598 36.3963 20.0001C36.3963 25.3407 36.3761 25.9729 36.2797 28.082Z" fill="url(#paint0_linear_221_15)"/>
<path d="M19.9996 9.72949C14.3276 9.72949 9.72949 14.3278 9.72949 19.9998C9.72949 25.6718 14.3276 30.2699 19.9996 30.2699C25.6719 30.2699 30.27 25.6718 30.27 19.9998C30.27 14.3278 25.6718 9.72949 19.9996 9.72949ZM19.9996 26.6664C16.3179 26.6661 13.333 23.6814 13.3333 19.9995C13.3333 16.3179 16.3179 13.3329 19.9999 13.3329C23.6818 13.3332 26.6664 16.3179 26.6664 19.9995C26.6664 23.6814 23.6815 26.6664 19.9996 26.6664Z" fill="url(#paint1_linear_221_15)"/>
<path d="M33.076 9.32406C33.076 10.6495 32.0014 11.7239 30.676 11.7239C29.3504 11.7239 28.2759 10.6494 28.2759 9.32406C28.2759 7.99828 29.3504 6.92383 30.676 6.92383C32.0014 6.92383 33.076 7.99836 33.076 9.32406H33.076Z" fill="url(#paint2_linear_221_15)"/>
<defs>
<linearGradient id="paint0_linear_221_15" x1="3.35672" y1="36.643" x2="36.6433" y2="3.35641" gradientUnits="userSpaceOnUse">
<stop stop-color="#FFD600"/>
<stop offset="0.5" stop-color="#FF0100"/>
<stop offset="1" stop-color="#D800B9"/>
</linearGradient>
<linearGradient id="paint1_linear_221_15" x1="12.7376" y1="27.2618" x2="27.2619" y2="12.7375" gradientUnits="userSpaceOnUse">
<stop stop-color="#FF6400"/>
<stop offset="0.5" stop-color="#FF0100"/>
<stop offset="1" stop-color="#FD0056"/>
</linearGradient>
<linearGradient id="paint2_linear_221_15" x1="28.9789" y1="11.0209" x2="32.373" y2="7.62687" gradientUnits="userSpaceOnUse">
<stop stop-color="#F30072"/>
<stop offset="1" stop-color="#E50097"/>
</linearGradient>
</defs>
</svg>
