<svg width="20" height="26" viewBox="0 0 20 26" fill="none" xmlns="http://www.w3.org/2000/svg">
<path d="M10.5864 0.727295C3.76821 0.727295 0.322754 5.6182 0.322754 9.69775C0.322754 12.1682 1.25685 14.3637 3.26366 15.1841C3.33354 15.221 3.41125 15.2405 3.49024 15.241C3.56923 15.2416 3.64721 15.2232 3.71759 15.1873C3.78798 15.1514 3.84872 15.0992 3.89471 15.035C3.9407 14.9707 3.97058 14.8964 3.98185 14.8182C4.05003 14.5659 4.20912 13.9296 4.27503 13.6659C4.37275 13.3046 4.33412 13.1796 4.06821 12.8659C3.49094 12.1841 3.12048 11.3 3.12048 10.05C3.12048 6.41366 5.84775 3.17048 10.1909 3.17048C14.0546 3.17048 16.1659 5.5273 16.1659 8.67502C16.1659 12.8159 14.3341 16.3091 11.6205 16.3091C10.1182 16.3091 8.99321 15.0659 9.34775 13.5432C9.77957 11.725 10.6159 9.76139 10.6159 8.44775C10.6159 7.27275 9.98412 6.29093 8.67957 6.29093C7.14321 6.29093 5.90912 7.88184 5.90912 10.0091C5.89817 10.7903 6.0531 11.5649 6.36366 12.2818C6.36366 12.2818 4.79094 18.9387 4.51594 20.1068C3.96821 22.4273 4.43412 25.275 4.47275 25.5614C4.47878 25.5983 4.49552 25.6326 4.52089 25.6601C4.54625 25.6876 4.57914 25.707 4.61545 25.716C4.65176 25.7249 4.68991 25.723 4.72514 25.7105C4.76038 25.698 4.79116 25.6754 4.81366 25.6455C4.95685 25.4591 6.78412 23.2023 7.40684 20.9455C7.58184 20.3068 8.41594 16.9977 8.41594 16.9977C8.91594 17.95 10.3728 18.7887 11.925 18.7887C16.5409 18.7887 19.6728 14.5796 19.6728 8.94775C19.6773 4.6932 16.0682 0.727295 10.5864 0.727295Z" fill="white"/>
</svg>
